<svg width="24" height="24" viewBox="0 0 24 24" fill="none" xmlns="http://www.w3.org/2000/svg">
<mask id="mask0_2_67" style="mask-type:alpha" maskUnits="userSpaceOnUse" x="0" y="0" width="24" height="24">
<rect x="0.5" y="0.5" width="23" height="23" fill="#D9D9D9" stroke="white"/>
</mask>
<g mask="url(#mask0_2_67)">
<path d="M8.55503 3.87071L8.5565 3.88104L8.55841 3.8913L9.20639 7.38045C9.23138 7.56201 9.22521 7.71031 9.19891 7.83129C9.17928 7.92161 9.13441 8.00848 9.04645 8.09645L9.04464 8.09826L6.61964 10.5483L6.34992 10.8208L6.54311 11.1519C7.26663 12.3922 8.17331 13.5515 9.26035 14.6299C10.3466 15.7076 11.5403 16.6405 12.8411 17.4277L13.1764 17.6307L13.4536 17.3536L15.8036 15.0036C15.8861 14.921 16.0067 14.8456 16.1857 14.79C16.357 14.7369 16.5155 14.7236 16.6663 14.7432L20.0952 15.4389C20.096 15.4391 20.0968 15.4392 20.0975 15.4394C20.2267 15.4675 20.3197 15.5246 20.3954 15.6129C20.4667 15.6961 20.5 15.7844 20.5 15.9V19.95C20.5 20.1263 20.4466 20.2463 20.3464 20.3464C20.2463 20.4466 20.1263 20.5 19.95 20.5C17.877 20.5 15.8535 20.0386 13.875 19.1099C11.885 18.1758 10.1246 16.9425 8.59105 15.4089C7.05752 13.8754 5.82416 12.115 4.89012 10.125C3.96142 8.14652 3.5 6.12296 3.5 4.05C3.5 3.87368 3.55345 3.75366 3.65355 3.65355C3.75366 3.55345 3.87368 3.5 4.05 3.5H8.1C8.21601 3.5 8.3129 3.53386 8.40838 3.61198C8.49527 3.68307 8.53951 3.76211 8.55503 3.87071ZM5.56665 9.19979L5.8598 9.87231L6.37855 9.35355L8.02855 7.70355L8.21359 7.51852L8.16702 7.26102L7.74202 4.91102L7.66769 4.5H7.25H5.025H4.46032L4.52868 5.06053C4.61401 5.76028 4.73351 6.45171 4.8872 7.13476C5.0444 7.83344 5.27115 8.52187 5.56665 9.19979ZM14.6214 17.5964L14.1027 18.1152L14.7752 18.4083C15.4505 18.7027 16.1397 18.9369 16.8426 19.1104C17.5446 19.2837 18.2517 19.3966 18.9635 19.4487L19.5 19.4879V18.95V16.75V16.341L19.0991 16.2599L16.7491 15.7849L16.4861 15.7318L16.2964 15.9214L14.6214 17.5964Z" fill="#1C1B1F" stroke="black"/>
</g>
</svg>
