<svg width="27" height="40" viewBox="0 0 27 40" fill="none" xmlns="http://www.w3.org/2000/svg">
<path d="M22.5563 8C24.5813 8 26.25 9.76 26.25 12V34C26.25 36.26 24.5813 38 22.5563 38C22.5563 39.16 21.675 40 20.625 40C19.6875 40 18.75 39.16 18.75 38H7.5C7.5 39.16 6.5625 40 5.625 40C4.575 40 3.69375 39.16 3.69375 38C1.66875 38 0 36.26 0 34V12C0 9.76 1.66875 8 3.69375 8H7.5V2C7.5 0.84 8.3625 0 9.375 0H16.875C17.8875 0 18.75 0.84 18.75 2V8H22.5563ZM15.9375 8V3H10.3125V8H15.9375ZM5.625 14V32H8.4375V14H5.625ZM17.8125 14V32H20.625V14H17.8125ZM11.7188 14V32H14.5312V14H11.7188Z" fill="black"/>
</svg>
