<svg width="191" height="107" viewBox="0 0 191 107" fill="none" xmlns="http://www.w3.org/2000/svg">
<path d="M52.0477 89.094C50.5252 92.454 47.7793 96 43.5 96C39.2207 96 36.4748 92.448 34.9523 89.094C33.3808 85.62 32.625 81.414 32.625 78V55.854L4.51312 40.344C3.15719 39.597 2.01668 38.448 1.21951 37.0257C0.422345 35.6035 5.05981e-05 33.9643 -5.96036e-07 32.292V24C0.000181071 23.5645 0.0862802 23.1343 0.252315 22.7392C0.41835 22.3442 0.660343 21.9937 0.961478 21.7123C1.26261 21.4308 1.61567 21.225 1.99613 21.1093C2.37658 20.9935 2.77531 20.9706 3.16462 21.042L33.1089 26.55L35.148 13.032L27.9814 5.124C27.6002 4.70442 27.3404 4.16939 27.2351 3.58674C27.1298 3.00409 27.1837 2.40006 27.3899 1.85122C27.596 1.30238 27.9453 0.833445 28.3932 0.503874C28.8412 0.174303 29.3678 -0.00106681 29.9062 -3.81469e-06L57.0937 -3.81469e-06C57.6322 -0.00106681 58.1588 0.174303 58.6068 0.503874C59.0547 0.833445 59.404 1.30238 59.6101 1.85122C59.8163 2.40006 59.8702 3.00409 59.7649 3.58674C59.6596 4.16939 59.3998 4.70442 59.0186 5.124L51.8466 13.032L53.8911 26.55L83.8354 21.042C84.2247 20.9706 84.6234 20.9935 85.0039 21.1093C85.3843 21.225 85.7374 21.4308 86.0385 21.7123C86.3397 21.9937 86.5816 22.3442 86.7477 22.7392C86.9137 23.1343 86.9998 23.5645 87 24V32.292C86.9999 33.9643 86.5777 35.6035 85.7805 37.0257C84.9833 38.448 83.8428 39.597 82.4869 40.344L54.375 55.854V78C54.375 81.408 53.6137 85.626 52.0477 89.094ZM47.1866 86.406C48.3339 83.88 48.9375 80.586 48.9375 78V54C48.9375 53.4433 49.0779 52.8976 49.3429 52.424C49.608 51.9503 49.9872 51.5674 50.4382 51.318L80.0617 34.974C80.5128 34.7246 80.892 34.3417 81.1571 33.868C81.4221 33.3944 81.5625 32.8487 81.5625 32.292V27.54L52.1021 32.958C51.392 33.0882 50.6641 32.9024 50.078 32.4412C49.4918 31.9801 49.0954 31.2812 48.9756 30.498L46.2568 12.498C46.1848 12.0256 46.2163 11.5411 46.3487 11.0849C46.4812 10.6288 46.7107 10.2142 47.0181 9.876L50.5252 6L36.4639 6L39.9819 9.876C40.2885 10.2136 40.5175 10.6271 40.6499 11.0822C40.7823 11.5372 40.8143 12.0206 40.7432 12.492L38.0244 30.492C37.9658 30.881 37.8382 31.2533 37.649 31.5879C37.4597 31.9224 37.2126 32.2124 36.9217 32.4415C36.6308 32.6705 36.3019 32.834 35.9537 32.9226C35.6055 33.0113 35.2449 33.0233 34.8924 32.958L5.4375 27.54V32.292C5.43752 32.8487 5.5779 33.3944 5.84294 33.868C6.10798 34.3417 6.48723 34.7246 6.93825 34.974L36.5617 51.318C37.0128 51.5674 37.392 51.9503 37.6571 52.424C37.9221 52.8976 38.0625 53.4433 38.0625 54V78C38.0625 80.592 38.6606 83.874 39.8134 86.406C41.0096 89.046 42.3418 90 43.5 90C44.6582 90 45.9904 89.052 47.1866 86.406Z" fill="#29A5FF"/>
<path d="M67.625 67.7812V96H63.9062V62.1875H67.5312L67.625 67.7812ZM79.5938 61.9375L79.5 65.375C79.0833 65.3125 78.6771 65.2604 78.2812 65.2188C77.8854 65.1771 77.4583 65.1562 77 65.1562C75.375 65.1562 73.9479 65.4583 72.7188 66.0625C71.5104 66.6458 70.4896 67.4688 69.6562 68.5312C68.8229 69.5729 68.1875 70.8021 67.75 72.2188C67.3125 73.6146 67.0625 75.1146 67 76.7188L65.625 77.25C65.625 75.0417 65.8542 72.9896 66.3125 71.0938C66.7708 69.1979 67.4688 67.5417 68.4062 66.125C69.3646 64.6875 70.5625 63.5729 72 62.7812C73.4583 61.9688 75.1667 61.5625 77.125 61.5625C77.6042 61.5625 78.0729 61.6042 78.5312 61.6875C79.0104 61.75 79.3646 61.8333 79.5938 61.9375ZM104.781 89.9375V72.5C104.781 70.8958 104.448 69.5104 103.781 68.3438C103.115 67.1771 102.135 66.2812 100.844 65.6562C99.5521 65.0312 97.9583 64.7188 96.0625 64.7188C94.3125 64.7188 92.75 65.0312 91.375 65.6562C90.0208 66.2604 88.9479 67.0833 88.1562 68.125C87.3854 69.1458 87 70.2812 87 71.5312L83.25 71.5C83.25 70.2292 83.5625 69 84.1875 67.8125C84.8125 66.625 85.6979 65.5625 86.8438 64.625C87.9896 63.6875 89.3542 62.9479 90.9375 62.4062C92.5417 61.8438 94.3021 61.5625 96.2188 61.5625C98.6354 61.5625 100.76 61.9688 102.594 62.7812C104.448 63.5938 105.896 64.8125 106.938 66.4375C107.979 68.0625 108.5 70.1042 108.5 72.5625V88.9062C108.5 90.0729 108.583 91.2812 108.75 92.5312C108.938 93.7812 109.198 94.8125 109.531 95.625V96H105.562C105.312 95.25 105.115 94.3125 104.969 93.1875C104.844 92.0417 104.781 90.9583 104.781 89.9375ZM105.656 76.3125L105.719 79.1875H98.375C96.4583 79.1875 94.7396 79.3646 93.2188 79.7188C91.7188 80.0521 90.4479 80.5521 89.4062 81.2188C88.3646 81.8646 87.5625 82.6458 87 83.5625C86.4583 84.4792 86.1875 85.5208 86.1875 86.6875C86.1875 87.8958 86.4896 89 87.0938 90C87.7188 91 88.5938 91.8021 89.7188 92.4062C90.8646 92.9896 92.2188 93.2812 93.7812 93.2812C95.8646 93.2812 97.6979 92.8958 99.2812 92.125C100.885 91.3542 102.208 90.3438 103.25 89.0938C104.292 87.8438 104.99 86.4792 105.344 85L106.969 87.1562C106.698 88.1979 106.198 89.2708 105.469 90.375C104.76 91.4583 103.833 92.4792 102.688 93.4375C101.542 94.375 100.188 95.1458 98.625 95.75C97.0833 96.3333 95.3333 96.625 93.375 96.625C91.1667 96.625 89.2396 96.2083 87.5938 95.375C85.9688 94.5417 84.6979 93.4062 83.7812 91.9688C82.8854 90.5104 82.4375 88.8646 82.4375 87.0312C82.4375 85.3646 82.7917 83.875 83.5 82.5625C84.2083 81.2292 85.2292 80.1042 86.5625 79.1875C87.9167 78.25 89.5417 77.5417 91.4375 77.0625C93.3542 76.5625 95.5 76.3125 97.875 76.3125H105.656ZM128 92.4062L138.844 62.1875H142.688L130.031 96H127.312L128 92.4062ZM118.188 62.1875L129.156 92.5L129.75 96H127L114.312 62.1875H118.188ZM161.469 96.625C159.26 96.625 157.229 96.2188 155.375 95.4062C153.542 94.5938 151.938 93.4479 150.562 91.9688C149.208 90.4896 148.156 88.7396 147.406 86.7188C146.677 84.6771 146.312 82.4479 146.312 80.0312V78.6875C146.312 76.0833 146.698 73.7292 147.469 71.625C148.24 69.5208 149.302 67.7188 150.656 66.2188C152.01 64.7188 153.552 63.5729 155.281 62.7812C157.031 61.9688 158.865 61.5625 160.781 61.5625C162.927 61.5625 164.833 61.9479 166.5 62.7188C168.167 63.4688 169.562 64.5417 170.688 65.9375C171.833 67.3125 172.698 68.9479 173.281 70.8438C173.865 72.7188 174.156 74.7917 174.156 77.0625V79.3438H148.562V76.1562H170.438V75.7188C170.396 73.8229 170.01 72.0521 169.281 70.4062C168.573 68.7396 167.51 67.3854 166.094 66.3438C164.677 65.3021 162.906 64.7812 160.781 64.7812C159.198 64.7812 157.74 65.1146 156.406 65.7812C155.094 66.4479 153.958 67.4062 153 68.6562C152.062 69.8854 151.333 71.3542 150.812 73.0625C150.312 74.75 150.062 76.625 150.062 78.6875V80.0312C150.062 81.9062 150.333 83.6562 150.875 85.2812C151.438 86.8854 152.229 88.3021 153.25 89.5312C154.292 90.7604 155.521 91.7188 156.938 92.4062C158.354 93.0938 159.917 93.4375 161.625 93.4375C163.625 93.4375 165.396 93.0729 166.938 92.3438C168.479 91.5938 169.865 90.4167 171.094 88.8125L173.438 90.625C172.708 91.7083 171.792 92.7083 170.688 93.625C169.604 94.5417 168.302 95.2708 166.781 95.8125C165.26 96.3542 163.49 96.625 161.469 96.625ZM185.688 48V96H181.969V48H185.688Z" fill="#29A5FF"/>
</svg>
