<svg width="123" height="49" viewBox="0 0 123 49" fill="none" xmlns="http://www.w3.org/2000/svg">
<path d="M4.625 19.7812V48H0.90625V14.1875H4.53125L4.625 19.7812ZM16.5938 13.9375L16.5 17.375C16.0833 17.3125 15.6771 17.2604 15.2812 17.2188C14.8854 17.1771 14.4583 17.1562 14 17.1562C12.375 17.1562 10.9479 17.4583 9.71875 18.0625C8.51042 18.6458 7.48958 19.4688 6.65625 20.5312C5.82292 21.5729 5.1875 22.8021 4.75 24.2188C4.3125 25.6146 4.0625 27.1146 4 28.7188L2.625 29.25C2.625 27.0417 2.85417 24.9896 3.3125 23.0938C3.77083 21.1979 4.46875 19.5417 5.40625 18.125C6.36458 16.6875 7.5625 15.5729 9 14.7812C10.4583 13.9688 12.1667 13.5625 14.125 13.5625C14.6042 13.5625 15.0729 13.6042 15.5312 13.6875C16.0104 13.75 16.3646 13.8333 16.5938 13.9375ZM41.7812 41.9375V24.5C41.7812 22.8958 41.4479 21.5104 40.7812 20.3438C40.1146 19.1771 39.1354 18.2812 37.8438 17.6562C36.5521 17.0312 34.9583 16.7188 33.0625 16.7188C31.3125 16.7188 29.75 17.0312 28.375 17.6562C27.0208 18.2604 25.9479 19.0833 25.1562 20.125C24.3854 21.1458 24 22.2812 24 23.5312L20.25 23.5C20.25 22.2292 20.5625 21 21.1875 19.8125C21.8125 18.625 22.6979 17.5625 23.8438 16.625C24.9896 15.6875 26.3542 14.9479 27.9375 14.4062C29.5417 13.8438 31.3021 13.5625 33.2188 13.5625C35.6354 13.5625 37.7604 13.9688 39.5938 14.7812C41.4479 15.5938 42.8958 16.8125 43.9375 18.4375C44.9792 20.0625 45.5 22.1042 45.5 24.5625V40.9062C45.5 42.0729 45.5833 43.2812 45.75 44.5312C45.9375 45.7812 46.1979 46.8125 46.5312 47.625V48H42.5625C42.3125 47.25 42.1146 46.3125 41.9688 45.1875C41.8438 44.0417 41.7812 42.9583 41.7812 41.9375ZM42.6562 28.3125L42.7188 31.1875H35.375C33.4583 31.1875 31.7396 31.3646 30.2188 31.7188C28.7188 32.0521 27.4479 32.5521 26.4062 33.2188C25.3646 33.8646 24.5625 34.6458 24 35.5625C23.4583 36.4792 23.1875 37.5208 23.1875 38.6875C23.1875 39.8958 23.4896 41 24.0938 42C24.7188 43 25.5938 43.8021 26.7188 44.4062C27.8646 44.9896 29.2188 45.2812 30.7812 45.2812C32.8646 45.2812 34.6979 44.8958 36.2812 44.125C37.8854 43.3542 39.2083 42.3438 40.25 41.0938C41.2917 39.8438 41.9896 38.4792 42.3438 37L43.9688 39.1562C43.6979 40.1979 43.1979 41.2708 42.4688 42.375C41.7604 43.4583 40.8333 44.4792 39.6875 45.4375C38.5417 46.375 37.1875 47.1458 35.625 47.75C34.0833 48.3333 32.3333 48.625 30.375 48.625C28.1667 48.625 26.2396 48.2083 24.5938 47.375C22.9688 46.5417 21.6979 45.4062 20.7812 43.9688C19.8854 42.5104 19.4375 40.8646 19.4375 39.0312C19.4375 37.3646 19.7917 35.875 20.5 34.5625C21.2083 33.2292 22.2292 32.1042 23.5625 31.1875C24.9167 30.25 26.5417 29.5417 28.4375 29.0625C30.3542 28.5625 32.5 28.3125 34.875 28.3125H42.6562ZM65 44.4062L75.8438 14.1875H79.6875L67.0312 48H64.3125L65 44.4062ZM55.1875 14.1875L66.1562 44.5L66.75 48H64L51.3125 14.1875H55.1875ZM98.4688 48.625C96.2604 48.625 94.2292 48.2188 92.375 47.4062C90.5417 46.5938 88.9375 45.4479 87.5625 43.9688C86.2083 42.4896 85.1562 40.7396 84.4062 38.7188C83.6771 36.6771 83.3125 34.4479 83.3125 32.0312V30.6875C83.3125 28.0833 83.6979 25.7292 84.4688 23.625C85.2396 21.5208 86.3021 19.7188 87.6562 18.2188C89.0104 16.7188 90.5521 15.5729 92.2812 14.7812C94.0312 13.9688 95.8646 13.5625 97.7812 13.5625C99.9271 13.5625 101.833 13.9479 103.5 14.7188C105.167 15.4688 106.562 16.5417 107.688 17.9375C108.833 19.3125 109.698 20.9479 110.281 22.8438C110.865 24.7188 111.156 26.7917 111.156 29.0625V31.3438H85.5625V28.1562H107.438V27.7188C107.396 25.8229 107.01 24.0521 106.281 22.4062C105.573 20.7396 104.51 19.3854 103.094 18.3438C101.677 17.3021 99.9062 16.7812 97.7812 16.7812C96.1979 16.7812 94.7396 17.1146 93.4062 17.7812C92.0938 18.4479 90.9583 19.4062 90 20.6562C89.0625 21.8854 88.3333 23.3542 87.8125 25.0625C87.3125 26.75 87.0625 28.625 87.0625 30.6875V32.0312C87.0625 33.9062 87.3333 35.6562 87.875 37.2812C88.4375 38.8854 89.2292 40.3021 90.25 41.5312C91.2917 42.7604 92.5208 43.7188 93.9375 44.4062C95.3542 45.0938 96.9167 45.4375 98.625 45.4375C100.625 45.4375 102.396 45.0729 103.938 44.3438C105.479 43.5938 106.865 42.4167 108.094 40.8125L110.438 42.625C109.708 43.7083 108.792 44.7083 107.688 45.625C106.604 46.5417 105.302 47.2708 103.781 47.8125C102.26 48.3542 100.49 48.625 98.4688 48.625ZM122.688 0V48H118.969V0H122.688Z" fill="#29A5FF"/>
</svg>
