<svg width="23" height="23" viewBox="0 0 23 23" fill="none" xmlns="http://www.w3.org/2000/svg">
<path d="M7.22487 23C15.9045 23 20.6526 14.149 20.6526 6.48688C20.6526 6.2392 20.6526 5.98798 20.6439 5.7403C21.5683 4.91675 22.3661 3.89713 23 2.72923C22.1365 3.19779 21.2215 3.5066 20.2846 3.64565C21.2715 2.91966 22.0106 1.77738 22.3646 0.431126C21.4374 1.10716 20.4226 1.58173 19.3646 1.83405C18.6533 0.901759 17.712 0.284142 16.6866 0.0768701C15.6612 -0.130402 14.6089 0.0842367 13.6927 0.68754C12.7764 1.29084 12.0474 2.24914 11.6185 3.414C11.1896 4.57885 11.0848 5.88525 11.3203 7.13085C9.444 7.01506 7.60842 6.41517 5.93262 5.3701C4.25682 4.32503 2.77823 2.85811 1.59275 1.06448C0.990926 2.34371 0.807262 3.85688 1.07905 5.29672C1.35085 6.73656 2.05772 7.99512 3.05612 8.81683C2.30796 8.78555 1.57625 8.5383 0.92 8.09503V8.17464C0.92129 9.51472 1.2985 10.8132 1.98788 11.8505C2.67726 12.8878 3.63651 13.6004 4.7035 13.8677C4.2985 14.005 3.88014 14.0735 3.46006 14.0712C3.16391 14.0723 2.86836 14.0385 2.57744 13.9703C2.87901 15.1239 3.46621 16.1325 4.25679 16.8549C5.04738 17.5772 6.00176 17.9772 6.98625 17.9987C5.3138 19.6153 3.24789 20.4921 1.12125 20.4878C0.746524 20.4898 0.372058 20.4632 0 20.4082C2.15843 22.1017 4.66512 23.001 7.22487 23Z" fill="#FEFEFE"/>
</svg>
