<svg width="25" height="25" viewBox="0 0 25 25" fill="none" xmlns="http://www.w3.org/2000/svg">
<mask id="mask0_9_17" style="mask-type:alpha" maskUnits="userSpaceOnUse" x="0" y="0" width="25" height="25">
<rect x="0.936996" y="0.171387" width="24" height="24" fill="#D9D9D9"/>
</mask>
<g mask="url(#mask0_9_17)">
<path d="M11.937 17.1714H13.937V16.1714H14.937C15.2203 16.1714 15.4578 16.0756 15.6495 15.8839C15.8412 15.6922 15.937 15.4547 15.937 15.1714V12.1714C15.937 11.8881 15.8412 11.6506 15.6495 11.4589C15.4578 11.2672 15.2203 11.1714 14.937 11.1714H11.937V10.1714H15.937V8.17139H13.937V7.17139H11.937V8.17139H10.937C10.6537 8.17139 10.4162 8.26722 10.2245 8.45889C10.0328 8.65055 9.937 8.88805 9.937 9.17139V12.1714C9.937 12.4547 10.0328 12.6922 10.2245 12.8839C10.4162 13.0756 10.6537 13.1714 10.937 13.1714H13.937V14.1714H9.937V16.1714H11.937V17.1714ZM4.937 20.1714C4.387 20.1714 3.91616 19.9756 3.5245 19.5839C3.13283 19.1922 2.937 18.7214 2.937 18.1714V6.17139C2.937 5.62139 3.13283 5.15055 3.5245 4.75889C3.91616 4.36722 4.387 4.17139 4.937 4.17139H20.937C21.487 4.17139 21.9578 4.36722 22.3495 4.75889C22.7412 5.15055 22.937 5.62139 22.937 6.17139V18.1714C22.937 18.7214 22.7412 19.1922 22.3495 19.5839C21.9578 19.9756 21.487 20.1714 20.937 20.1714H4.937ZM4.937 18.1714H20.937V6.17139H4.937V18.1714Z" fill="black"/>
</g>
</svg>
