<svg width="50" height="50" viewBox="0 0 50 50" fill="none" xmlns="http://www.w3.org/2000/svg">
<path fill-rule="evenodd" clip-rule="evenodd" d="M42.8467 9.51332C43.0016 9.35836 43.1245 9.1744 43.2084 8.97193C43.2923 8.76947 43.3354 8.55247 43.3354 8.33332C43.3354 8.11418 43.2923 7.89718 43.2084 7.69471C43.1245 7.49225 43.0016 7.30828 42.8467 7.15332C42.6917 6.99836 42.5077 6.87544 42.3053 6.79158C42.1028 6.70771 41.8858 6.66455 41.6667 6.66455C41.4475 6.66455 41.2305 6.70771 41.0281 6.79158C40.8256 6.87544 40.6416 6.99836 40.4867 7.15332L25 22.6433L9.51334 7.15332C9.35838 6.99836 9.17441 6.87544 8.97195 6.79158C8.76948 6.70771 8.55248 6.66455 8.33334 6.66455C8.11419 6.66455 7.89719 6.70771 7.69473 6.79158C7.49226 6.87544 7.3083 6.99836 7.15334 7.15332C6.99838 7.30828 6.87546 7.49225 6.79159 7.69471C6.70773 7.89718 6.66457 8.11418 6.66457 8.33332C6.66457 8.55247 6.70773 8.76947 6.79159 8.97193C6.87546 9.1744 6.99838 9.35836 7.15334 9.51332L22.6433 25L7.15334 40.4867C6.84038 40.7996 6.66457 41.2241 6.66457 41.6667C6.66457 42.1092 6.84038 42.5337 7.15334 42.8467C7.46629 43.1596 7.89075 43.3354 8.33334 43.3354C8.77592 43.3354 9.20038 43.1596 9.51334 42.8467L25 27.3567L40.4867 42.8467C40.7996 43.1596 41.2241 43.3354 41.6667 43.3354C42.1093 43.3354 42.5337 43.1596 42.8467 42.8467C43.1596 42.5337 43.3354 42.1092 43.3354 41.6667C43.3354 41.2241 43.1596 40.7996 42.8467 40.4867L27.3567 25L42.8467 9.51332Z" fill="black"/>
</svg>
