<svg width="40" height="47" viewBox="0 0 40 47" fill="none" xmlns="http://www.w3.org/2000/svg">
<path d="M28.9562 11.7166C30.8076 11.7166 32.3333 13.4326 32.3333 15.6166V37.0666C32.3333 39.2701 30.8076 40.9666 28.9562 40.9666C28.9562 42.0976 28.1505 42.9166 27.1905 42.9166C26.3333 42.9166 25.4762 42.0976 25.4762 40.9666H15.1905C15.1905 42.0976 14.3333 42.9166 13.4762 42.9166C12.5162 42.9166 11.7105 42.0976 11.7105 40.9666C9.85906 40.9666 8.33334 39.2701 8.33334 37.0666V15.6166C8.33334 13.4326 9.85906 11.7166 11.7105 11.7166H15.1905V5.86663C15.1905 4.73563 15.9791 3.91663 16.9048 3.91663H23.7619C24.6876 3.91663 25.4762 4.73563 25.4762 5.86663V11.7166H28.9562ZM22.9048 11.7166V6.84163H17.7619V11.7166H22.9048ZM13.4762 17.5666V35.1166H16.0476V17.5666H13.4762ZM24.6191 17.5666V35.1166H27.1905V17.5666H24.6191ZM19.0476 17.5666V35.1166H21.6191V17.5666H19.0476Z" fill="white"/>
</svg>
