<svg width="24" height="24" viewBox="0 0 24 24" fill="none" xmlns="http://www.w3.org/2000/svg">
<path d="M12.75 2.75V4.5H14.725C15.076 4.5 15.419 4.606 15.709 4.803L17.406 5.957C17.447 5.985 17.496 6 17.546 6H21.648C21.8469 6 22.0377 6.07902 22.1783 6.21967C22.319 6.36032 22.398 6.55109 22.398 6.75C22.398 6.94891 22.319 7.13968 22.1783 7.28033C22.0377 7.42098 21.8469 7.5 21.648 7.5H20.07L23.436 15.18C23.5035 15.3335 23.5175 15.5053 23.4758 15.6677C23.4341 15.8302 23.3391 15.974 23.206 16.076C23.106 16.15 23.003 16.219 22.896 16.282C22.6423 16.4334 22.3784 16.5667 22.106 16.681C21.2015 17.0593 20.2304 17.2527 19.25 17.25C18.27 17.2531 17.2992 17.06 16.395 16.682C16.1225 16.5676 15.8585 16.434 15.605 16.282C15.4989 16.2206 15.3964 16.1531 15.298 16.08L15.293 16.076C15.1599 15.974 15.0648 15.8302 15.0231 15.6677C14.9814 15.5053 14.9955 15.3335 15.063 15.18L18.431 7.5H17.545C17.194 7.5 16.851 7.394 16.561 7.197L14.864 6.043C14.8228 6.01479 14.7739 5.99979 14.724 6H12.75V20.5H17.237C17.4359 20.5 17.6267 20.579 17.7673 20.7197C17.908 20.8603 17.987 21.0511 17.987 21.25C17.987 21.4489 17.908 21.6397 17.7673 21.7803C17.6267 21.921 17.4359 22 17.237 22H6.76299C6.56407 22 6.37331 21.921 6.23266 21.7803C6.092 21.6397 6.01299 21.4489 6.01299 21.25C6.01299 21.0511 6.092 20.8603 6.23266 20.7197C6.37331 20.579 6.56407 20.5 6.76299 20.5H11.25V6H9.27499C9.22506 5.99997 9.17629 6.01496 9.13499 6.043L7.43899 7.197C7.14899 7.394 6.80599 7.5 6.45499 7.5H5.56899L8.93699 15.18C9.00217 15.3292 9.01704 15.4956 8.97933 15.654C8.94163 15.8124 8.8534 15.9542 8.72799 16.058C8.64799 16.123 8.56799 16.184 8.41799 16.281C8.16509 16.4448 7.90036 16.5895 7.62599 16.714C6.7228 17.1243 5.742 17.3357 4.74999 17.334C3.75794 17.3361 2.77706 17.1246 1.87399 16.714C1.59962 16.5895 1.33489 16.4448 1.08199 16.281C0.975042 16.213 0.871889 16.1392 0.772986 16.06C0.648564 15.955 0.561045 15.8129 0.523254 15.6545C0.485463 15.4962 0.499387 15.3299 0.562986 15.18L3.92999 7.5H2.35299C2.15407 7.5 1.96331 7.42098 1.82266 7.28033C1.682 7.13968 1.60299 6.94891 1.60299 6.75C1.60299 6.55109 1.682 6.36032 1.82266 6.21967C1.96331 6.07902 2.15407 6 2.35299 6H6.45499C6.50499 6 6.55399 5.985 6.59599 5.957L8.29099 4.803C8.58099 4.605 8.92499 4.5 9.27599 4.5H11.25V2.75C11.25 2.55109 11.329 2.36032 11.4697 2.21967C11.6103 2.07902 11.8011 2 12 2C12.1989 2 12.3897 2.07902 12.5303 2.21967C12.671 2.36032 12.75 2.55109 12.75 2.75ZM2.19299 15.198C2.98003 15.617 3.85837 15.8351 4.74999 15.833C5.6416 15.8351 6.51994 15.617 7.30699 15.198L4.74999 9.368L2.19299 15.198ZM16.703 15.174C16.785 15.214 16.877 15.257 16.978 15.3C17.508 15.523 18.283 15.75 19.25 15.75C20.1316 15.7525 21.0023 15.5556 21.797 15.174L19.25 9.367L16.703 15.174Z" fill="white"/>
</svg>
