<svg width="30" height="30" viewBox="0 0 30 30" fill="none" xmlns="http://www.w3.org/2000/svg">
<path d="M14.6563 2C12.1531 2 9.70613 2.74228 7.62482 4.13296C5.54351 5.52365 3.92133 7.50029 2.96341 9.81291C2.00548 12.1255 1.75485 14.6703 2.24319 17.1254C2.73154 19.5804 3.93693 21.8356 5.70694 23.6056C7.47694 25.3756 9.73207 26.581 12.1871 27.0693C14.6422 27.5577 17.187 27.307 19.4996 26.3491C21.8122 25.3912 23.7889 23.769 25.1795 21.6877C26.5702 19.6064 27.3125 17.1594 27.3125 14.6562C27.3094 11.3006 25.975 8.08319 23.6022 5.71036C21.2293 3.33752 18.012 2.0031 14.6563 2ZM14.6563 24.5C12.7093 24.5 10.8062 23.9227 9.18736 22.841C7.56856 21.7594 6.30687 20.222 5.56182 18.4233C4.81677 16.6246 4.62183 14.6453 5.00165 12.7358C5.38147 10.8263 6.319 9.07234 7.69567 7.69567C9.07235 6.31899 10.8263 5.38147 12.7358 5.00164C14.6453 4.62182 16.6246 4.81676 18.4233 5.56181C20.222 6.30686 21.7594 7.56856 22.841 9.18736C23.9227 10.8062 24.5 12.7093 24.5 14.6562C24.4969 17.266 23.4588 19.768 21.6134 21.6134C19.768 23.4588 17.266 24.4969 14.6563 24.5ZM18.7578 8.71484L12.1484 11.3633C11.9697 11.4315 11.8073 11.5367 11.672 11.672C11.5367 11.8073 11.4315 11.9697 11.3633 12.1484L8.71485 18.7695C8.61256 19.0251 8.58752 19.305 8.64283 19.5747C8.69815 19.8443 8.83138 20.0918 9.02603 20.2865C9.22067 20.4811 9.46816 20.6144 9.73781 20.6697C10.0075 20.725 10.2874 20.6999 10.543 20.5977L17.1641 17.9492C17.3428 17.881 17.5052 17.7758 17.6405 17.6405C17.7758 17.5052 17.881 17.3428 17.9492 17.1641L20.5859 10.543C20.6882 10.2874 20.7133 10.0075 20.658 9.7378C20.6026 9.46815 20.4694 9.22066 20.2748 9.02602C20.0801 8.83138 19.8326 8.69814 19.563 8.64283C19.2933 8.58751 19.0134 8.61255 18.7578 8.71484ZM15.5586 15.5586L12.5352 16.7773L13.7539 13.7539L16.7656 12.5469L15.5586 15.5586Z" fill="white"/>
</svg>
